<mxfile host="app.diagrams.net" modified="2022-06-30T03:16:23.451Z" agent="5.0 (Windows NT 10.0; Win64; x64) AppleWebKit/537.36 (KHTML, like Gecko) Chrome/103.0.5060.53 Safari/537.36 Edg/103.0.1264.37" etag="4KLWeuHGKts_0WTB-Jwp" version="20.0.4" type="github" pages="3">
  <diagram id="_vvt5JsC5poTHi2t1kRt" name="第1頁">
    <mxGraphModel dx="1730" dy="2067" grid="0" gridSize="10" guides="1" tooltips="1" connect="1" arrows="1" fold="1" page="1" pageScale="1" pageWidth="827" pageHeight="1169" background="#666666" math="0" shadow="0">
      <root>
        <mxCell id="0" />
        <mxCell id="1" parent="0" />
        <mxCell id="FRc3w70s1SiC9rnRwSGg-1" value="&lt;b&gt;&lt;font style=&quot;line-height: 1.1; font-size: 31px;&quot; color=&quot;#ffffff&quot;&gt;CSIEJAR 班網2.0 流程圖&lt;/font&gt;&lt;/b&gt;" style="text;html=1;align=center;verticalAlign=middle;resizable=0;points=[];autosize=1;strokeColor=none;fillColor=none;flipH=1;flipV=1;" vertex="1" parent="1">
          <mxGeometry x="229" y="-1152" width="370" height="50" as="geometry" />
        </mxCell>
        <mxCell id="FRc3w70s1SiC9rnRwSGg-11" style="edgeStyle=orthogonalEdgeStyle;rounded=0;orthogonalLoop=1;jettySize=auto;html=1;fontSize=16;fontColor=#000000;" edge="1" parent="1" source="FRc3w70s1SiC9rnRwSGg-2" target="FRc3w70s1SiC9rnRwSGg-9">
          <mxGeometry relative="1" as="geometry">
            <mxPoint x="186" y="-1078" as="targetPoint" />
          </mxGeometry>
        </mxCell>
        <mxCell id="FRc3w70s1SiC9rnRwSGg-2" value="&lt;font style=&quot;font-size: 16px;&quot;&gt;進入班網2.0&lt;/font&gt;" style="rounded=1;whiteSpace=wrap;html=1;fontFamily=Helvetica;fontSize=31;fontColor=default;align=center;strokeColor=#6c8ebf;fillColor=#dae8fc;" vertex="1" parent="1">
          <mxGeometry x="35" y="-1108" width="120" height="60" as="geometry" />
        </mxCell>
        <mxCell id="FRc3w70s1SiC9rnRwSGg-15" style="edgeStyle=orthogonalEdgeStyle;rounded=0;orthogonalLoop=1;jettySize=auto;html=1;fontSize=16;fontColor=#000000;" edge="1" parent="1" source="FRc3w70s1SiC9rnRwSGg-9" target="FRc3w70s1SiC9rnRwSGg-12">
          <mxGeometry relative="1" as="geometry" />
        </mxCell>
        <mxCell id="FRc3w70s1SiC9rnRwSGg-9" value="&lt;font color=&quot;#000000&quot;&gt;導頁至&lt;/font&gt;&lt;font color=&quot;#ff0000&quot;&gt;首頁&lt;/font&gt;" style="rounded=0;whiteSpace=wrap;html=1;fontSize=16;fontColor=#FFFFFF;" vertex="1" parent="1">
          <mxGeometry x="35" y="-1016" width="120" height="60" as="geometry" />
        </mxCell>
        <mxCell id="FRc3w70s1SiC9rnRwSGg-24" style="edgeStyle=orthogonalEdgeStyle;rounded=0;orthogonalLoop=1;jettySize=auto;html=1;entryX=0;entryY=0.5;entryDx=0;entryDy=0;fontSize=16;fontColor=#000000;" edge="1" parent="1" source="FRc3w70s1SiC9rnRwSGg-12" target="FRc3w70s1SiC9rnRwSGg-17">
          <mxGeometry relative="1" as="geometry" />
        </mxCell>
        <mxCell id="FRc3w70s1SiC9rnRwSGg-51" style="edgeStyle=orthogonalEdgeStyle;rounded=0;orthogonalLoop=1;jettySize=auto;html=1;entryX=0;entryY=0.5;entryDx=0;entryDy=0;fontSize=16;fontColor=#FF0000;endArrow=classic;endFill=1;" edge="1" parent="1" source="FRc3w70s1SiC9rnRwSGg-12" target="FRc3w70s1SiC9rnRwSGg-48">
          <mxGeometry relative="1" as="geometry" />
        </mxCell>
        <mxCell id="FRc3w70s1SiC9rnRwSGg-71" style="edgeStyle=orthogonalEdgeStyle;rounded=0;orthogonalLoop=1;jettySize=auto;html=1;entryX=0;entryY=0.5;entryDx=0;entryDy=0;fontSize=16;fontColor=#000000;endArrow=classic;endFill=1;" edge="1" parent="1" source="FRc3w70s1SiC9rnRwSGg-12" target="FRc3w70s1SiC9rnRwSGg-53">
          <mxGeometry relative="1" as="geometry" />
        </mxCell>
        <mxCell id="FRc3w70s1SiC9rnRwSGg-72" style="edgeStyle=orthogonalEdgeStyle;rounded=0;orthogonalLoop=1;jettySize=auto;html=1;entryX=0;entryY=0.5;entryDx=0;entryDy=0;fontSize=16;fontColor=#000000;endArrow=classic;endFill=1;" edge="1" parent="1" source="FRc3w70s1SiC9rnRwSGg-12" target="FRc3w70s1SiC9rnRwSGg-56">
          <mxGeometry relative="1" as="geometry" />
        </mxCell>
        <mxCell id="FRc3w70s1SiC9rnRwSGg-73" style="edgeStyle=orthogonalEdgeStyle;rounded=0;orthogonalLoop=1;jettySize=auto;html=1;entryX=0;entryY=0.5;entryDx=0;entryDy=0;fontSize=16;fontColor=#000000;endArrow=classic;endFill=1;" edge="1" parent="1" source="FRc3w70s1SiC9rnRwSGg-12" target="FRc3w70s1SiC9rnRwSGg-59">
          <mxGeometry relative="1" as="geometry" />
        </mxCell>
        <mxCell id="FRc3w70s1SiC9rnRwSGg-77" style="edgeStyle=orthogonalEdgeStyle;rounded=0;orthogonalLoop=1;jettySize=auto;html=1;entryX=0;entryY=0.5;entryDx=0;entryDy=0;fontSize=16;fontColor=#000000;endArrow=classic;endFill=1;" edge="1" parent="1" source="FRc3w70s1SiC9rnRwSGg-12" target="FRc3w70s1SiC9rnRwSGg-62">
          <mxGeometry relative="1" as="geometry" />
        </mxCell>
        <mxCell id="FRc3w70s1SiC9rnRwSGg-78" style="edgeStyle=orthogonalEdgeStyle;rounded=0;orthogonalLoop=1;jettySize=auto;html=1;entryX=0;entryY=0.5;entryDx=0;entryDy=0;fontSize=16;fontColor=#000000;endArrow=classic;endFill=1;" edge="1" parent="1" source="FRc3w70s1SiC9rnRwSGg-12" target="FRc3w70s1SiC9rnRwSGg-65">
          <mxGeometry relative="1" as="geometry" />
        </mxCell>
        <mxCell id="FRc3w70s1SiC9rnRwSGg-79" style="edgeStyle=orthogonalEdgeStyle;rounded=0;orthogonalLoop=1;jettySize=auto;html=1;entryX=0;entryY=0.5;entryDx=0;entryDy=0;fontSize=16;fontColor=#000000;endArrow=classic;endFill=1;" edge="1" parent="1" source="FRc3w70s1SiC9rnRwSGg-12" target="FRc3w70s1SiC9rnRwSGg-68">
          <mxGeometry relative="1" as="geometry" />
        </mxCell>
        <mxCell id="FRc3w70s1SiC9rnRwSGg-80" style="edgeStyle=orthogonalEdgeStyle;rounded=0;orthogonalLoop=1;jettySize=auto;html=1;entryX=0;entryY=0.5;entryDx=0;entryDy=0;fontSize=16;fontColor=#000000;endArrow=classic;endFill=1;" edge="1" parent="1" source="FRc3w70s1SiC9rnRwSGg-12" target="FRc3w70s1SiC9rnRwSGg-74">
          <mxGeometry relative="1" as="geometry" />
        </mxCell>
        <mxCell id="FRc3w70s1SiC9rnRwSGg-12" value="&lt;font color=&quot;#000000&quot;&gt;選擇分頁&lt;/font&gt;" style="shape=hexagon;perimeter=hexagonPerimeter2;whiteSpace=wrap;html=1;fixedSize=1;fontSize=16;fontColor=#FF0000;" vertex="1" parent="1">
          <mxGeometry x="35" y="-908" width="120" height="80" as="geometry" />
        </mxCell>
        <mxCell id="FRc3w70s1SiC9rnRwSGg-45" style="edgeStyle=orthogonalEdgeStyle;rounded=0;orthogonalLoop=1;jettySize=auto;html=1;entryX=0;entryY=0.5;entryDx=0;entryDy=0;fontSize=16;fontColor=#000000;endArrow=classic;endFill=1;" edge="1" parent="1" source="FRc3w70s1SiC9rnRwSGg-17" target="FRc3w70s1SiC9rnRwSGg-42">
          <mxGeometry relative="1" as="geometry" />
        </mxCell>
        <mxCell id="FRc3w70s1SiC9rnRwSGg-46" style="edgeStyle=orthogonalEdgeStyle;rounded=0;orthogonalLoop=1;jettySize=auto;html=1;entryX=0;entryY=0.5;entryDx=0;entryDy=0;fontSize=16;fontColor=#000000;endArrow=classic;endFill=1;" edge="1" parent="1" source="FRc3w70s1SiC9rnRwSGg-17" target="FRc3w70s1SiC9rnRwSGg-43">
          <mxGeometry relative="1" as="geometry" />
        </mxCell>
        <mxCell id="FRc3w70s1SiC9rnRwSGg-47" style="edgeStyle=orthogonalEdgeStyle;rounded=0;orthogonalLoop=1;jettySize=auto;html=1;entryX=0;entryY=0.5;entryDx=0;entryDy=0;fontSize=16;fontColor=#000000;endArrow=classic;endFill=1;" edge="1" parent="1" source="FRc3w70s1SiC9rnRwSGg-17" target="FRc3w70s1SiC9rnRwSGg-44">
          <mxGeometry relative="1" as="geometry" />
        </mxCell>
        <mxCell id="FRc3w70s1SiC9rnRwSGg-17" value="&lt;font color=&quot;#ff0000&quot;&gt;首頁&lt;/font&gt;" style="rounded=0;whiteSpace=wrap;html=1;fontSize=16;flipH=1;flipV=0;fillColor=#d5e8d4;strokeColor=#82b366;" vertex="1" parent="1">
          <mxGeometry x="228" y="-1056" width="120" height="60" as="geometry" />
        </mxCell>
        <mxCell id="FRc3w70s1SiC9rnRwSGg-34" style="edgeStyle=orthogonalEdgeStyle;rounded=0;orthogonalLoop=1;jettySize=auto;html=1;fontSize=16;fontColor=#FF0000;dashed=1;endArrow=none;endFill=0;" edge="1" parent="1" source="FRc3w70s1SiC9rnRwSGg-33" target="FRc3w70s1SiC9rnRwSGg-17">
          <mxGeometry relative="1" as="geometry" />
        </mxCell>
        <mxCell id="FRc3w70s1SiC9rnRwSGg-33" value="&lt;font color=&quot;#000000&quot;&gt;放重要文章&lt;/font&gt;" style="rounded=0;whiteSpace=wrap;html=1;fontSize=16;dashed=1;fillColor=#d5e8d4;strokeColor=#000000;strokeWidth=1;" vertex="1" parent="1">
          <mxGeometry x="228" y="-968" width="120" height="60" as="geometry" />
        </mxCell>
        <mxCell id="MMz0G5BZzKkC_veyKBzm-12" style="edgeStyle=orthogonalEdgeStyle;rounded=0;orthogonalLoop=1;jettySize=auto;html=1;entryX=0;entryY=0.5;entryDx=0;entryDy=0;fontSize=16;fontColor=#000000;endArrow=classic;endFill=1;strokeColor=default;" edge="1" parent="1" source="FRc3w70s1SiC9rnRwSGg-42" target="MMz0G5BZzKkC_veyKBzm-11">
          <mxGeometry relative="1" as="geometry" />
        </mxCell>
        <mxCell id="FRc3w70s1SiC9rnRwSGg-42" value="上方切換圖片區" style="rounded=0;whiteSpace=wrap;html=1;fontSize=16;fontColor=#000000;" vertex="1" parent="1">
          <mxGeometry x="693" y="-1056" width="120" height="60" as="geometry" />
        </mxCell>
        <mxCell id="MMz0G5BZzKkC_veyKBzm-14" style="edgeStyle=orthogonalEdgeStyle;rounded=0;orthogonalLoop=1;jettySize=auto;html=1;entryX=0;entryY=0.5;entryDx=0;entryDy=0;fontSize=16;fontColor=#000000;endArrow=classic;endFill=1;strokeColor=default;" edge="1" parent="1" source="FRc3w70s1SiC9rnRwSGg-43" target="MMz0G5BZzKkC_veyKBzm-11">
          <mxGeometry relative="1" as="geometry" />
        </mxCell>
        <mxCell id="FRc3w70s1SiC9rnRwSGg-43" value="中間卡片區" style="rounded=0;whiteSpace=wrap;html=1;fontSize=16;fontColor=#000000;" vertex="1" parent="1">
          <mxGeometry x="693" y="-968" width="120" height="60" as="geometry" />
        </mxCell>
        <mxCell id="MMz0G5BZzKkC_veyKBzm-15" style="edgeStyle=orthogonalEdgeStyle;rounded=0;orthogonalLoop=1;jettySize=auto;html=1;entryX=0;entryY=0.5;entryDx=0;entryDy=0;fontSize=16;fontColor=#000000;endArrow=classic;endFill=1;strokeColor=default;" edge="1" parent="1" source="FRc3w70s1SiC9rnRwSGg-44" target="MMz0G5BZzKkC_veyKBzm-11">
          <mxGeometry relative="1" as="geometry" />
        </mxCell>
        <mxCell id="FRc3w70s1SiC9rnRwSGg-44" value="下方快速連結區" style="rounded=0;whiteSpace=wrap;html=1;fontSize=16;fontColor=#000000;" vertex="1" parent="1">
          <mxGeometry x="693" y="-880" width="120" height="60" as="geometry" />
        </mxCell>
        <mxCell id="FRc3w70s1SiC9rnRwSGg-82" style="edgeStyle=orthogonalEdgeStyle;rounded=0;orthogonalLoop=1;jettySize=auto;html=1;entryX=0;entryY=0.5;entryDx=0;entryDy=0;fontSize=16;fontColor=#000000;endArrow=classic;endFill=1;" edge="1" parent="1" source="FRc3w70s1SiC9rnRwSGg-48" target="FRc3w70s1SiC9rnRwSGg-52">
          <mxGeometry relative="1" as="geometry" />
        </mxCell>
        <mxCell id="FRc3w70s1SiC9rnRwSGg-83" style="edgeStyle=orthogonalEdgeStyle;rounded=0;orthogonalLoop=1;jettySize=auto;html=1;entryX=0;entryY=0.5;entryDx=0;entryDy=0;fontSize=16;fontColor=#000000;endArrow=classic;endFill=1;" edge="1" parent="1" source="FRc3w70s1SiC9rnRwSGg-48" target="FRc3w70s1SiC9rnRwSGg-81">
          <mxGeometry relative="1" as="geometry" />
        </mxCell>
        <mxCell id="FRc3w70s1SiC9rnRwSGg-48" value="&lt;font color=&quot;#ff0000&quot;&gt;公告&lt;/font&gt;" style="rounded=0;whiteSpace=wrap;html=1;fontSize=16;flipH=1;flipV=0;fillColor=#fff2cc;strokeColor=#d6b656;" vertex="1" parent="1">
          <mxGeometry x="229" y="-765" width="120" height="60" as="geometry" />
        </mxCell>
        <mxCell id="FRc3w70s1SiC9rnRwSGg-49" style="edgeStyle=orthogonalEdgeStyle;rounded=0;orthogonalLoop=1;jettySize=auto;html=1;fontSize=16;fontColor=#FF0000;dashed=1;endArrow=none;endFill=0;" edge="1" source="FRc3w70s1SiC9rnRwSGg-50" target="FRc3w70s1SiC9rnRwSGg-48" parent="1">
          <mxGeometry relative="1" as="geometry" />
        </mxCell>
        <mxCell id="FRc3w70s1SiC9rnRwSGg-50" value="公告班級事務&lt;br&gt;(考試、上課調整" style="rounded=0;whiteSpace=wrap;html=1;fontSize=16;dashed=1;dashPattern=1 4;fillColor=#fff2cc;strokeColor=#000000;" vertex="1" parent="1">
          <mxGeometry x="229" y="-677" width="120" height="60" as="geometry" />
        </mxCell>
        <mxCell id="MMz0G5BZzKkC_veyKBzm-27" style="edgeStyle=orthogonalEdgeStyle;rounded=0;orthogonalLoop=1;jettySize=auto;html=1;fontSize=16;fontColor=#000000;endArrow=classic;endFill=1;strokeColor=default;" edge="1" parent="1" source="FRc3w70s1SiC9rnRwSGg-52" target="MMz0G5BZzKkC_veyKBzm-26">
          <mxGeometry relative="1" as="geometry" />
        </mxCell>
        <mxCell id="FRc3w70s1SiC9rnRwSGg-52" value="&lt;font color=&quot;#000000&quot;&gt;1. dc 公告分頁&lt;/font&gt;" style="rounded=0;whiteSpace=wrap;html=1;fontSize=16;fontColor=#FF0000;strokeColor=#000000;strokeWidth=1;" vertex="1" parent="1">
          <mxGeometry x="693" y="-765" width="120" height="60" as="geometry" />
        </mxCell>
        <mxCell id="FRc3w70s1SiC9rnRwSGg-86" style="edgeStyle=orthogonalEdgeStyle;rounded=0;orthogonalLoop=1;jettySize=auto;html=1;entryX=0;entryY=0.5;entryDx=0;entryDy=0;fontSize=16;fontColor=#000000;endArrow=classic;endFill=1;" edge="1" parent="1" source="FRc3w70s1SiC9rnRwSGg-53" target="FRc3w70s1SiC9rnRwSGg-84">
          <mxGeometry relative="1" as="geometry" />
        </mxCell>
        <mxCell id="FRc3w70s1SiC9rnRwSGg-87" style="edgeStyle=orthogonalEdgeStyle;rounded=0;orthogonalLoop=1;jettySize=auto;html=1;entryX=0;entryY=0.5;entryDx=0;entryDy=0;fontSize=16;fontColor=#000000;endArrow=classic;endFill=1;" edge="1" parent="1" source="FRc3w70s1SiC9rnRwSGg-53" target="FRc3w70s1SiC9rnRwSGg-85">
          <mxGeometry relative="1" as="geometry" />
        </mxCell>
        <mxCell id="FRc3w70s1SiC9rnRwSGg-53" value="&lt;font color=&quot;#ff0000&quot;&gt;課表&lt;/font&gt;" style="rounded=0;whiteSpace=wrap;html=1;fontSize=16;flipH=1;flipV=0;fillColor=#dae8fc;strokeColor=#6c8ebf;" vertex="1" parent="1">
          <mxGeometry x="229" y="-549" width="120" height="60" as="geometry" />
        </mxCell>
        <mxCell id="FRc3w70s1SiC9rnRwSGg-54" style="edgeStyle=orthogonalEdgeStyle;rounded=0;orthogonalLoop=1;jettySize=auto;html=1;fontSize=16;fontColor=#FF0000;dashed=1;endArrow=none;endFill=0;" edge="1" source="FRc3w70s1SiC9rnRwSGg-55" target="FRc3w70s1SiC9rnRwSGg-53" parent="1">
          <mxGeometry relative="1" as="geometry" />
        </mxCell>
        <mxCell id="FRc3w70s1SiC9rnRwSGg-55" value="班級上課表查詢&lt;br&gt;其他課表查詢" style="rounded=0;whiteSpace=wrap;html=1;fontSize=16;dashed=1;dashPattern=1 4;fillColor=#dae8fc;strokeColor=#000000;" vertex="1" parent="1">
          <mxGeometry x="229" y="-461" width="120" height="60" as="geometry" />
        </mxCell>
        <mxCell id="FRc3w70s1SiC9rnRwSGg-89" style="edgeStyle=orthogonalEdgeStyle;rounded=0;orthogonalLoop=1;jettySize=auto;html=1;entryX=0;entryY=0.5;entryDx=0;entryDy=0;fontSize=16;fontColor=#000000;endArrow=classic;endFill=1;" edge="1" parent="1" source="FRc3w70s1SiC9rnRwSGg-56" target="FRc3w70s1SiC9rnRwSGg-88">
          <mxGeometry relative="1" as="geometry" />
        </mxCell>
        <mxCell id="FRc3w70s1SiC9rnRwSGg-56" value="&lt;font color=&quot;#ff0000&quot;&gt;資源&lt;/font&gt;" style="rounded=0;whiteSpace=wrap;html=1;fontSize=16;flipH=1;flipV=0;fillColor=#d5e8d4;strokeColor=#82b366;" vertex="1" parent="1">
          <mxGeometry x="228" y="-350" width="120" height="60" as="geometry" />
        </mxCell>
        <mxCell id="FRc3w70s1SiC9rnRwSGg-57" style="edgeStyle=orthogonalEdgeStyle;rounded=0;orthogonalLoop=1;jettySize=auto;html=1;fontSize=16;fontColor=#FF0000;dashed=1;endArrow=none;endFill=0;" edge="1" source="FRc3w70s1SiC9rnRwSGg-58" target="FRc3w70s1SiC9rnRwSGg-56" parent="1">
          <mxGeometry relative="1" as="geometry" />
        </mxCell>
        <mxCell id="FRc3w70s1SiC9rnRwSGg-58" value="一些考試資料、提供班上連結" style="rounded=0;whiteSpace=wrap;html=1;fontSize=16;dashed=1;dashPattern=1 4;fillColor=#d5e8d4;strokeColor=#000000;" vertex="1" parent="1">
          <mxGeometry x="228" y="-262" width="120" height="60" as="geometry" />
        </mxCell>
        <mxCell id="FRc3w70s1SiC9rnRwSGg-91" style="edgeStyle=orthogonalEdgeStyle;rounded=0;orthogonalLoop=1;jettySize=auto;html=1;entryX=0;entryY=0.5;entryDx=0;entryDy=0;fontSize=16;fontColor=#000000;endArrow=classic;endFill=1;" edge="1" parent="1" source="FRc3w70s1SiC9rnRwSGg-59" target="FRc3w70s1SiC9rnRwSGg-90">
          <mxGeometry relative="1" as="geometry" />
        </mxCell>
        <mxCell id="FRc3w70s1SiC9rnRwSGg-94" style="edgeStyle=orthogonalEdgeStyle;rounded=0;orthogonalLoop=1;jettySize=auto;html=1;entryX=0;entryY=0.5;entryDx=0;entryDy=0;fontSize=16;fontColor=#000000;endArrow=classic;endFill=1;" edge="1" parent="1" source="FRc3w70s1SiC9rnRwSGg-59" target="FRc3w70s1SiC9rnRwSGg-92">
          <mxGeometry relative="1" as="geometry" />
        </mxCell>
        <mxCell id="FRc3w70s1SiC9rnRwSGg-95" style="edgeStyle=orthogonalEdgeStyle;rounded=0;orthogonalLoop=1;jettySize=auto;html=1;entryX=0;entryY=0.5;entryDx=0;entryDy=0;fontSize=16;fontColor=#000000;endArrow=classic;endFill=1;" edge="1" parent="1" source="FRc3w70s1SiC9rnRwSGg-59" target="FRc3w70s1SiC9rnRwSGg-93">
          <mxGeometry relative="1" as="geometry" />
        </mxCell>
        <mxCell id="FRc3w70s1SiC9rnRwSGg-59" value="&lt;font color=&quot;#ff0000&quot;&gt;班級&lt;/font&gt;" style="rounded=0;whiteSpace=wrap;html=1;fontSize=16;flipH=1;flipV=0;fillColor=#fff2cc;strokeColor=#d6b656;" vertex="1" parent="1">
          <mxGeometry x="230" y="-174" width="120" height="60" as="geometry" />
        </mxCell>
        <mxCell id="FRc3w70s1SiC9rnRwSGg-60" style="edgeStyle=orthogonalEdgeStyle;rounded=0;orthogonalLoop=1;jettySize=auto;html=1;fontSize=16;fontColor=#FF0000;dashed=1;endArrow=none;endFill=0;" edge="1" source="FRc3w70s1SiC9rnRwSGg-61" target="FRc3w70s1SiC9rnRwSGg-59" parent="1">
          <mxGeometry relative="1" as="geometry" />
        </mxCell>
        <mxCell id="FRc3w70s1SiC9rnRwSGg-61" value="關於班上的一些資源" style="rounded=0;whiteSpace=wrap;html=1;fontSize=16;dashed=1;dashPattern=1 4;fillColor=#fff2cc;strokeColor=#000000;" vertex="1" parent="1">
          <mxGeometry x="230" y="-86" width="120" height="60" as="geometry" />
        </mxCell>
        <mxCell id="FRc3w70s1SiC9rnRwSGg-97" style="edgeStyle=orthogonalEdgeStyle;rounded=0;orthogonalLoop=1;jettySize=auto;html=1;entryX=0;entryY=0.5;entryDx=0;entryDy=0;fontSize=16;fontColor=#000000;endArrow=classic;endFill=1;" edge="1" parent="1" source="FRc3w70s1SiC9rnRwSGg-62" target="FRc3w70s1SiC9rnRwSGg-96">
          <mxGeometry relative="1" as="geometry" />
        </mxCell>
        <mxCell id="FRc3w70s1SiC9rnRwSGg-62" value="&lt;font color=&quot;#ff0000&quot;&gt;行事曆&lt;/font&gt;" style="rounded=0;whiteSpace=wrap;html=1;fontSize=16;flipH=1;flipV=0;fillColor=#dae8fc;strokeColor=#6c8ebf;" vertex="1" parent="1">
          <mxGeometry x="227.5" y="169" width="120" height="60" as="geometry" />
        </mxCell>
        <mxCell id="FRc3w70s1SiC9rnRwSGg-63" style="edgeStyle=orthogonalEdgeStyle;rounded=0;orthogonalLoop=1;jettySize=auto;html=1;fontSize=16;fontColor=#FF0000;dashed=1;endArrow=none;endFill=0;" edge="1" source="FRc3w70s1SiC9rnRwSGg-64" target="FRc3w70s1SiC9rnRwSGg-62" parent="1">
          <mxGeometry relative="1" as="geometry" />
        </mxCell>
        <mxCell id="FRc3w70s1SiC9rnRwSGg-64" value="學校行事曆" style="rounded=0;whiteSpace=wrap;html=1;fontSize=16;dashed=1;dashPattern=1 4;fillColor=#dae8fc;strokeColor=#000000;" vertex="1" parent="1">
          <mxGeometry x="227.5" y="263" width="120" height="60" as="geometry" />
        </mxCell>
        <mxCell id="FRc3w70s1SiC9rnRwSGg-99" style="edgeStyle=orthogonalEdgeStyle;rounded=0;orthogonalLoop=1;jettySize=auto;html=1;fontSize=16;fontColor=#000000;endArrow=classic;endFill=1;" edge="1" parent="1" source="FRc3w70s1SiC9rnRwSGg-65" target="FRc3w70s1SiC9rnRwSGg-98">
          <mxGeometry relative="1" as="geometry" />
        </mxCell>
        <mxCell id="FRc3w70s1SiC9rnRwSGg-65" value="&lt;font color=&quot;#ff0000&quot;&gt;其他&lt;/font&gt;" style="rounded=0;whiteSpace=wrap;html=1;fontSize=16;flipH=1;flipV=0;fillColor=#d5e8d4;strokeColor=#82b366;" vertex="1" parent="1">
          <mxGeometry x="227.5" y="401" width="120" height="60" as="geometry" />
        </mxCell>
        <mxCell id="FRc3w70s1SiC9rnRwSGg-66" style="edgeStyle=orthogonalEdgeStyle;rounded=0;orthogonalLoop=1;jettySize=auto;html=1;fontSize=16;fontColor=#FF0000;dashed=1;endArrow=none;endFill=0;" edge="1" source="FRc3w70s1SiC9rnRwSGg-67" target="FRc3w70s1SiC9rnRwSGg-65" parent="1">
          <mxGeometry relative="1" as="geometry" />
        </mxCell>
        <mxCell id="FRc3w70s1SiC9rnRwSGg-67" value="就是其他" style="rounded=0;whiteSpace=wrap;html=1;fontSize=16;dashed=1;dashPattern=1 4;fillColor=#d5e8d4;strokeColor=#000000;" vertex="1" parent="1">
          <mxGeometry x="227.5" y="487" width="120" height="60" as="geometry" />
        </mxCell>
        <mxCell id="FRc3w70s1SiC9rnRwSGg-105" style="edgeStyle=orthogonalEdgeStyle;rounded=0;orthogonalLoop=1;jettySize=auto;html=1;entryX=0;entryY=0.5;entryDx=0;entryDy=0;fontSize=16;fontColor=#000000;endArrow=classic;endFill=1;exitX=1;exitY=0.5;exitDx=0;exitDy=0;" edge="1" parent="1" source="MMz0G5BZzKkC_veyKBzm-37" target="FRc3w70s1SiC9rnRwSGg-104">
          <mxGeometry relative="1" as="geometry" />
        </mxCell>
        <mxCell id="MMz0G5BZzKkC_veyKBzm-38" style="edgeStyle=orthogonalEdgeStyle;rounded=0;orthogonalLoop=1;jettySize=auto;html=1;entryX=0;entryY=0.5;entryDx=0;entryDy=0;fontSize=16;fontColor=#000000;endArrow=classic;endFill=1;strokeColor=default;" edge="1" parent="1" source="FRc3w70s1SiC9rnRwSGg-68" target="MMz0G5BZzKkC_veyKBzm-37">
          <mxGeometry relative="1" as="geometry" />
        </mxCell>
        <mxCell id="FRc3w70s1SiC9rnRwSGg-68" value="&lt;font color=&quot;#ff0000&quot;&gt;文章&lt;/font&gt;" style="rounded=0;whiteSpace=wrap;html=1;fontSize=16;flipH=1;flipV=0;fillColor=#fff2cc;strokeColor=#d6b656;" vertex="1" parent="1">
          <mxGeometry x="227.5" y="632" width="120" height="60" as="geometry" />
        </mxCell>
        <mxCell id="FRc3w70s1SiC9rnRwSGg-69" style="edgeStyle=orthogonalEdgeStyle;rounded=0;orthogonalLoop=1;jettySize=auto;html=1;fontSize=16;fontColor=#FF0000;dashed=1;endArrow=none;endFill=0;" edge="1" source="FRc3w70s1SiC9rnRwSGg-70" target="FRc3w70s1SiC9rnRwSGg-68" parent="1">
          <mxGeometry relative="1" as="geometry" />
        </mxCell>
        <mxCell id="FRc3w70s1SiC9rnRwSGg-70" value="可以管理自己寫過的文章 (需登入" style="rounded=0;whiteSpace=wrap;html=1;fontSize=16;dashed=1;dashPattern=1 4;fillColor=#fff2cc;strokeColor=#000000;" vertex="1" parent="1">
          <mxGeometry x="227.5" y="714" width="120" height="60" as="geometry" />
        </mxCell>
        <mxCell id="G_jc5sRVIORRS5Z0nNji-16" style="edgeStyle=orthogonalEdgeStyle;rounded=0;orthogonalLoop=1;jettySize=auto;html=1;entryX=0;entryY=0.5;entryDx=0;entryDy=0;fontSize=9;fontColor=#FFFFFF;endArrow=classic;endFill=1;strokeColor=default;" edge="1" parent="1" source="FRc3w70s1SiC9rnRwSGg-74" target="G_jc5sRVIORRS5Z0nNji-15">
          <mxGeometry relative="1" as="geometry" />
        </mxCell>
        <mxCell id="MMz0G5BZzKkC_veyKBzm-4" value="人分類" style="edgeStyle=orthogonalEdgeStyle;rounded=0;orthogonalLoop=1;jettySize=auto;html=1;entryX=0;entryY=0.5;entryDx=0;entryDy=0;fontSize=16;fontColor=#0000CC;endArrow=classic;endFill=1;" edge="1" parent="1" source="FRc3w70s1SiC9rnRwSGg-74" target="MMz0G5BZzKkC_veyKBzm-3">
          <mxGeometry x="0.6865" relative="1" as="geometry">
            <mxPoint as="offset" />
          </mxGeometry>
        </mxCell>
        <mxCell id="MMz0G5BZzKkC_veyKBzm-2" value="人、文章類別分類" style="edgeStyle=orthogonalEdgeStyle;rounded=0;orthogonalLoop=1;jettySize=auto;html=1;entryX=0;entryY=0.5;entryDx=0;entryDy=0;fontSize=16;fontColor=#0000CC;endArrow=classic;endFill=1;" edge="1" parent="1" source="FRc3w70s1SiC9rnRwSGg-74" target="MMz0G5BZzKkC_veyKBzm-1">
          <mxGeometry x="0.5216" relative="1" as="geometry">
            <mxPoint x="1" as="offset" />
          </mxGeometry>
        </mxCell>
        <mxCell id="FRc3w70s1SiC9rnRwSGg-74" value="&lt;font color=&quot;#ff0000&quot;&gt;管理&lt;/font&gt;" style="rounded=0;whiteSpace=wrap;html=1;fontSize=16;flipH=1;flipV=0;fillColor=#dae8fc;strokeColor=#6c8ebf;" vertex="1" parent="1">
          <mxGeometry x="227.5" y="864" width="120" height="60" as="geometry" />
        </mxCell>
        <mxCell id="FRc3w70s1SiC9rnRwSGg-75" style="edgeStyle=orthogonalEdgeStyle;rounded=0;orthogonalLoop=1;jettySize=auto;html=1;fontSize=16;fontColor=#FF0000;dashed=1;endArrow=none;endFill=0;" edge="1" source="FRc3w70s1SiC9rnRwSGg-76" target="FRc3w70s1SiC9rnRwSGg-74" parent="1">
          <mxGeometry relative="1" as="geometry" />
        </mxCell>
        <mxCell id="FRc3w70s1SiC9rnRwSGg-76" value="給開發者管理別人寫的文章" style="rounded=0;whiteSpace=wrap;html=1;fontSize=16;dashed=1;dashPattern=1 4;fillColor=#dae8fc;strokeColor=#000000;" vertex="1" parent="1">
          <mxGeometry x="227.5" y="945" width="120" height="60" as="geometry" />
        </mxCell>
        <mxCell id="MMz0G5BZzKkC_veyKBzm-17" style="edgeStyle=orthogonalEdgeStyle;rounded=0;orthogonalLoop=1;jettySize=auto;html=1;entryX=0;entryY=0.5;entryDx=0;entryDy=0;fontSize=16;fontColor=#000000;endArrow=classic;endFill=1;strokeColor=default;" edge="1" parent="1" source="FRc3w70s1SiC9rnRwSGg-81" target="MMz0G5BZzKkC_veyKBzm-16">
          <mxGeometry relative="1" as="geometry" />
        </mxCell>
        <mxCell id="FRc3w70s1SiC9rnRwSGg-81" value="&lt;font color=&quot;#000000&quot;&gt;2. 文章公告分頁&lt;/font&gt;" style="rounded=0;whiteSpace=wrap;html=1;fontSize=16;fontColor=#FF0000;strokeColor=#000000;strokeWidth=1;" vertex="1" parent="1">
          <mxGeometry x="693" y="-677" width="120" height="60" as="geometry" />
        </mxCell>
        <mxCell id="MMz0G5BZzKkC_veyKBzm-30" style="edgeStyle=orthogonalEdgeStyle;rounded=0;orthogonalLoop=1;jettySize=auto;html=1;entryX=0;entryY=0.5;entryDx=0;entryDy=0;fontSize=16;fontColor=#000000;endArrow=classic;endFill=1;strokeColor=default;" edge="1" parent="1" source="FRc3w70s1SiC9rnRwSGg-84" target="MMz0G5BZzKkC_veyKBzm-28">
          <mxGeometry relative="1" as="geometry" />
        </mxCell>
        <mxCell id="FRc3w70s1SiC9rnRwSGg-84" value="班級課表" style="rounded=0;whiteSpace=wrap;html=1;fontSize=16;fontColor=#000000;strokeColor=#000000;strokeWidth=1;" vertex="1" parent="1">
          <mxGeometry x="693" y="-549" width="120" height="60" as="geometry" />
        </mxCell>
        <mxCell id="MMz0G5BZzKkC_veyKBzm-31" style="edgeStyle=orthogonalEdgeStyle;rounded=0;orthogonalLoop=1;jettySize=auto;html=1;fontSize=16;fontColor=#000000;endArrow=classic;endFill=1;strokeColor=default;" edge="1" parent="1" source="FRc3w70s1SiC9rnRwSGg-85" target="MMz0G5BZzKkC_veyKBzm-29">
          <mxGeometry relative="1" as="geometry" />
        </mxCell>
        <mxCell id="FRc3w70s1SiC9rnRwSGg-85" value="其他課課表查詢&lt;br&gt;link to other site" style="rounded=0;whiteSpace=wrap;html=1;fontSize=16;fontColor=#000000;strokeColor=#000000;strokeWidth=1;" vertex="1" parent="1">
          <mxGeometry x="693" y="-461" width="120" height="60" as="geometry" />
        </mxCell>
        <mxCell id="MMz0G5BZzKkC_veyKBzm-19" style="edgeStyle=orthogonalEdgeStyle;rounded=0;orthogonalLoop=1;jettySize=auto;html=1;fontSize=16;fontColor=#000000;endArrow=classic;endFill=1;strokeColor=default;" edge="1" parent="1" source="FRc3w70s1SiC9rnRwSGg-88" target="MMz0G5BZzKkC_veyKBzm-18">
          <mxGeometry relative="1" as="geometry" />
        </mxCell>
        <mxCell id="FRc3w70s1SiC9rnRwSGg-88" value="文章形式展現&lt;br&gt;(分類 例:資源-考試" style="rounded=0;whiteSpace=wrap;html=1;fontSize=16;fontColor=#000000;strokeColor=#000000;strokeWidth=1;" vertex="1" parent="1">
          <mxGeometry x="693" y="-350" width="120" height="60" as="geometry" />
        </mxCell>
        <mxCell id="MMz0G5BZzKkC_veyKBzm-21" style="edgeStyle=orthogonalEdgeStyle;rounded=0;orthogonalLoop=1;jettySize=auto;html=1;entryX=0;entryY=0.5;entryDx=0;entryDy=0;fontSize=16;fontColor=#000000;endArrow=classic;endFill=1;strokeColor=default;" edge="1" parent="1" source="FRc3w70s1SiC9rnRwSGg-90" target="MMz0G5BZzKkC_veyKBzm-20">
          <mxGeometry relative="1" as="geometry" />
        </mxCell>
        <mxCell id="G_jc5sRVIORRS5Z0nNji-37" style="edgeStyle=orthogonalEdgeStyle;rounded=0;orthogonalLoop=1;jettySize=auto;html=1;exitX=0.5;exitY=1;exitDx=0;exitDy=0;entryX=0;entryY=0.5;entryDx=0;entryDy=0;fontSize=16;fontColor=#FF0000;endArrow=classic;endFill=1;strokeColor=default;" edge="1" parent="1" source="FRc3w70s1SiC9rnRwSGg-90" target="G_jc5sRVIORRS5Z0nNji-31">
          <mxGeometry relative="1" as="geometry" />
        </mxCell>
        <mxCell id="FRc3w70s1SiC9rnRwSGg-90" value="班級幹部介紹" style="rounded=0;whiteSpace=wrap;html=1;fontSize=16;fontColor=#000000;strokeColor=#000000;strokeWidth=1;" vertex="1" parent="1">
          <mxGeometry x="693" y="-174" width="120" height="60" as="geometry" />
        </mxCell>
        <mxCell id="MMz0G5BZzKkC_veyKBzm-23" style="edgeStyle=orthogonalEdgeStyle;rounded=0;orthogonalLoop=1;jettySize=auto;html=1;entryX=0;entryY=0.5;entryDx=0;entryDy=0;fontSize=16;fontColor=#000000;endArrow=classic;endFill=1;strokeColor=default;" edge="1" parent="1" source="FRc3w70s1SiC9rnRwSGg-92" target="MMz0G5BZzKkC_veyKBzm-22">
          <mxGeometry relative="1" as="geometry" />
        </mxCell>
        <mxCell id="G_jc5sRVIORRS5Z0nNji-35" style="edgeStyle=orthogonalEdgeStyle;rounded=0;orthogonalLoop=1;jettySize=auto;html=1;exitX=0.5;exitY=0;exitDx=0;exitDy=0;entryX=0;entryY=0.5;entryDx=0;entryDy=0;fontSize=16;fontColor=#FF0000;endArrow=classic;endFill=1;strokeColor=default;" edge="1" parent="1" source="FRc3w70s1SiC9rnRwSGg-92" target="G_jc5sRVIORRS5Z0nNji-31">
          <mxGeometry relative="1" as="geometry" />
        </mxCell>
        <mxCell id="FRc3w70s1SiC9rnRwSGg-92" value="班級財務班費" style="rounded=0;whiteSpace=wrap;html=1;fontSize=16;fontColor=#000000;strokeColor=#000000;strokeWidth=1;" vertex="1" parent="1">
          <mxGeometry x="693" y="-60" width="120" height="60" as="geometry" />
        </mxCell>
        <mxCell id="MMz0G5BZzKkC_veyKBzm-25" style="edgeStyle=orthogonalEdgeStyle;rounded=0;orthogonalLoop=1;jettySize=auto;html=1;entryX=0;entryY=0.5;entryDx=0;entryDy=0;fontSize=16;fontColor=#000000;endArrow=classic;endFill=1;strokeColor=default;" edge="1" parent="1" source="FRc3w70s1SiC9rnRwSGg-93" target="MMz0G5BZzKkC_veyKBzm-24">
          <mxGeometry relative="1" as="geometry" />
        </mxCell>
        <mxCell id="FRc3w70s1SiC9rnRwSGg-93" value="班級照片載點" style="rounded=0;whiteSpace=wrap;html=1;fontSize=16;fontColor=#000000;strokeColor=#000000;strokeWidth=1;" vertex="1" parent="1">
          <mxGeometry x="693" y="54" width="120" height="60" as="geometry" />
        </mxCell>
        <mxCell id="MMz0G5BZzKkC_veyKBzm-34" style="edgeStyle=orthogonalEdgeStyle;rounded=0;orthogonalLoop=1;jettySize=auto;html=1;fontSize=16;fontColor=#000000;endArrow=classic;endFill=1;strokeColor=default;" edge="1" parent="1" source="FRc3w70s1SiC9rnRwSGg-96" target="MMz0G5BZzKkC_veyKBzm-32">
          <mxGeometry relative="1" as="geometry" />
        </mxCell>
        <mxCell id="FRc3w70s1SiC9rnRwSGg-96" value="學校行事曆show and download" style="rounded=0;whiteSpace=wrap;html=1;fontSize=16;fontColor=#000000;strokeColor=#000000;strokeWidth=1;" vertex="1" parent="1">
          <mxGeometry x="693" y="169" width="120" height="60" as="geometry" />
        </mxCell>
        <mxCell id="G_jc5sRVIORRS5Z0nNji-71" style="edgeStyle=orthogonalEdgeStyle;rounded=0;orthogonalLoop=1;jettySize=auto;html=1;fontSize=11;fontColor=#000000;endArrow=classic;endFill=1;strokeColor=default;" edge="1" parent="1" source="FRc3w70s1SiC9rnRwSGg-98" target="FRc3w70s1SiC9rnRwSGg-100">
          <mxGeometry relative="1" as="geometry" />
        </mxCell>
        <mxCell id="FRc3w70s1SiC9rnRwSGg-98" value="&lt;font color=&quot;#ff0000&quot;&gt;作品分享&lt;/font&gt;" style="rounded=0;whiteSpace=wrap;html=1;fontSize=16;strokeColor=#9673a6;strokeWidth=1;fillColor=#e1d5e7;" vertex="1" parent="1">
          <mxGeometry x="439" y="401" width="120" height="60" as="geometry" />
        </mxCell>
        <mxCell id="MMz0G5BZzKkC_veyKBzm-36" style="edgeStyle=orthogonalEdgeStyle;rounded=0;orthogonalLoop=1;jettySize=auto;html=1;entryX=0;entryY=0.5;entryDx=0;entryDy=0;fontSize=16;fontColor=#000000;endArrow=classic;endFill=1;strokeColor=default;" edge="1" parent="1" source="FRc3w70s1SiC9rnRwSGg-100" target="MMz0G5BZzKkC_veyKBzm-35">
          <mxGeometry relative="1" as="geometry" />
        </mxCell>
        <mxCell id="FRc3w70s1SiC9rnRwSGg-100" value="&lt;font color=&quot;#000000&quot;&gt;文章&lt;br&gt;類別(作品-臘腸&lt;/font&gt;" style="rounded=0;whiteSpace=wrap;html=1;fontSize=16;fontColor=#FF0000;strokeColor=#000000;strokeWidth=1;" vertex="1" parent="1">
          <mxGeometry x="693" y="401" width="120" height="60" as="geometry" />
        </mxCell>
        <mxCell id="G_jc5sRVIORRS5Z0nNji-10" style="edgeStyle=orthogonalEdgeStyle;rounded=0;orthogonalLoop=1;jettySize=auto;html=1;fontSize=11;fontColor=#000000;endArrow=none;endFill=0;strokeColor=default;dashed=1;" edge="1" parent="1" source="FRc3w70s1SiC9rnRwSGg-102" target="G_jc5sRVIORRS5Z0nNji-9">
          <mxGeometry relative="1" as="geometry" />
        </mxCell>
        <mxCell id="G_jc5sRVIORRS5Z0nNji-41" style="edgeStyle=orthogonalEdgeStyle;rounded=0;orthogonalLoop=1;jettySize=auto;html=1;fontSize=16;fontColor=#FF0000;endArrow=classic;endFill=1;strokeColor=default;" edge="1" parent="1" source="FRc3w70s1SiC9rnRwSGg-102" target="G_jc5sRVIORRS5Z0nNji-40">
          <mxGeometry relative="1" as="geometry" />
        </mxCell>
        <UserObject label="&lt;u style=&quot;color: rgb(0, 0, 204);&quot;&gt;文章物件&lt;/u&gt;&lt;br&gt;&lt;font color=&quot;#000000&quot; style=&quot;font-size: 11px;&quot;&gt;(類別分類&lt;/font&gt;" link="data:page/id,4rdW10R4nMfylIW8_K46" id="FRc3w70s1SiC9rnRwSGg-102">
          <mxCell style="rounded=0;whiteSpace=wrap;html=1;fontSize=16;fontColor=#FF0000;strokeColor=#000000;strokeWidth=1;" vertex="1" parent="1">
            <mxGeometry x="693" y="631" width="120" height="60" as="geometry" />
          </mxCell>
        </UserObject>
        <mxCell id="FRc3w70s1SiC9rnRwSGg-104" value="新增文章&lt;br&gt;&lt;span style=&quot;font-size: 11px;&quot;&gt;(類別分類&lt;/span&gt;" style="rounded=0;whiteSpace=wrap;html=1;fontSize=16;fontColor=#000000;strokeColor=#000000;strokeWidth=1;" vertex="1" parent="1">
          <mxGeometry x="693" y="721" width="120" height="60" as="geometry" />
        </mxCell>
        <mxCell id="MMz0G5BZzKkC_veyKBzm-6" style="edgeStyle=orthogonalEdgeStyle;rounded=0;orthogonalLoop=1;jettySize=auto;html=1;fontSize=16;fontColor=#0000CC;endArrow=none;endFill=0;strokeColor=default;dashed=1;" edge="1" parent="1" source="MMz0G5BZzKkC_veyKBzm-1" target="MMz0G5BZzKkC_veyKBzm-5">
          <mxGeometry relative="1" as="geometry" />
        </mxCell>
        <mxCell id="G_jc5sRVIORRS5Z0nNji-17" style="edgeStyle=orthogonalEdgeStyle;rounded=0;orthogonalLoop=1;jettySize=auto;html=1;entryX=0;entryY=0.5;entryDx=0;entryDy=0;fontSize=16;fontColor=#000000;endArrow=classic;endFill=1;strokeColor=default;" edge="1" parent="1" source="MMz0G5BZzKkC_veyKBzm-1" target="G_jc5sRVIORRS5Z0nNji-2">
          <mxGeometry relative="1" as="geometry" />
        </mxCell>
        <UserObject label="文章物件" link="data:page/id,4rdW10R4nMfylIW8_K46" id="MMz0G5BZzKkC_veyKBzm-1">
          <mxCell style="rounded=0;whiteSpace=wrap;html=1;fontSize=16;fontColor=#0000CC;strokeColor=#000000;strokeWidth=1;fontStyle=4" vertex="1" parent="1">
            <mxGeometry x="693" y="865.5" width="120" height="60" as="geometry" />
          </mxCell>
        </UserObject>
        <mxCell id="G_jc5sRVIORRS5Z0nNji-18" style="edgeStyle=orthogonalEdgeStyle;rounded=0;orthogonalLoop=1;jettySize=auto;html=1;fontSize=16;fontColor=#000000;endArrow=none;endFill=0;strokeColor=default;dashed=1;" edge="1" parent="1" source="MMz0G5BZzKkC_veyKBzm-3" target="MMz0G5BZzKkC_veyKBzm-8">
          <mxGeometry relative="1" as="geometry" />
        </mxCell>
        <mxCell id="G_jc5sRVIORRS5Z0nNji-19" style="edgeStyle=orthogonalEdgeStyle;rounded=0;orthogonalLoop=1;jettySize=auto;html=1;entryX=0;entryY=0.5;entryDx=0;entryDy=0;fontSize=16;fontColor=#000000;endArrow=classic;endFill=1;strokeColor=default;" edge="1" parent="1" source="MMz0G5BZzKkC_veyKBzm-3" target="G_jc5sRVIORRS5Z0nNji-5">
          <mxGeometry relative="1" as="geometry" />
        </mxCell>
        <UserObject label="人物件" link="data:page/id,zZE-y9bboT51KGp_EKce" id="MMz0G5BZzKkC_veyKBzm-3">
          <mxCell style="rounded=0;whiteSpace=wrap;html=1;fontSize=16;fontColor=#0000CC;strokeColor=#000000;strokeWidth=1;fontStyle=4" vertex="1" parent="1">
            <mxGeometry x="693" y="1073.5" width="120" height="60" as="geometry" />
          </mxCell>
        </UserObject>
        <mxCell id="MMz0G5BZzKkC_veyKBzm-5" value="&lt;font color=&quot;#000000&quot;&gt;基本功能+&lt;/font&gt;審核&lt;br&gt;&lt;span style=&quot;color: rgb(0, 0, 0); font-size: 11px;&quot;&gt;(點連結~&amp;nbsp;&lt;/span&gt;&lt;br style=&quot;color: rgb(0, 0, 0); font-size: 11px;&quot;&gt;&lt;span style=&quot;color: rgb(0, 0, 0); font-size: 11px;&quot;&gt;for more info&lt;/span&gt;" style="rounded=0;whiteSpace=wrap;html=1;fontSize=16;fontColor=#0000CC;strokeColor=#000000;strokeWidth=1;dashed=1;" vertex="1" parent="1">
          <mxGeometry x="693" y="963.5" width="120" height="60" as="geometry" />
        </mxCell>
        <mxCell id="MMz0G5BZzKkC_veyKBzm-8" value="&lt;font color=&quot;#000000&quot;&gt;可註銷帳號+ban 寫文章&lt;br&gt;&lt;/font&gt;&lt;span style=&quot;color: rgb(0, 0, 0); font-size: 11px;&quot;&gt;(點連結~&amp;nbsp;&lt;/span&gt;&lt;br style=&quot;color: rgb(0, 0, 0); font-size: 11px;&quot;&gt;&lt;span style=&quot;color: rgb(0, 0, 0); font-size: 11px;&quot;&gt;for more info&lt;/span&gt;&lt;font color=&quot;#000000&quot;&gt;&lt;br&gt;&lt;/font&gt;" style="rounded=0;whiteSpace=wrap;html=1;fontSize=16;fontColor=#0000CC;strokeColor=#000000;strokeWidth=1;dashed=1;" vertex="1" parent="1">
          <mxGeometry x="693" y="1162.5" width="120" height="98" as="geometry" />
        </mxCell>
        <mxCell id="G_jc5sRVIORRS5Z0nNji-57" style="edgeStyle=orthogonalEdgeStyle;rounded=0;orthogonalLoop=1;jettySize=auto;html=1;fontSize=11;fontColor=#FF0000;endArrow=classic;endFill=1;strokeColor=default;" edge="1" parent="1" source="MMz0G5BZzKkC_veyKBzm-11" target="G_jc5sRVIORRS5Z0nNji-12">
          <mxGeometry relative="1" as="geometry" />
        </mxCell>
        <mxCell id="MMz0G5BZzKkC_veyKBzm-11" value="flask 傳值 show" style="rounded=0;whiteSpace=wrap;html=1;fontSize=16;strokeColor=#b85450;strokeWidth=1;fillColor=#f8cecc;" vertex="1" parent="1">
          <mxGeometry x="1094" y="-968" width="120" height="60" as="geometry" />
        </mxCell>
        <mxCell id="G_jc5sRVIORRS5Z0nNji-58" style="edgeStyle=orthogonalEdgeStyle;rounded=0;orthogonalLoop=1;jettySize=auto;html=1;fontSize=11;fontColor=#FF0000;endArrow=classic;endFill=1;strokeColor=default;" edge="1" parent="1" source="MMz0G5BZzKkC_veyKBzm-16" target="G_jc5sRVIORRS5Z0nNji-20">
          <mxGeometry relative="1" as="geometry" />
        </mxCell>
        <mxCell id="MMz0G5BZzKkC_veyKBzm-16" value="flask 傳值 show" style="rounded=0;whiteSpace=wrap;html=1;fontSize=16;strokeColor=#b85450;strokeWidth=1;fillColor=#f8cecc;" vertex="1" parent="1">
          <mxGeometry x="1094" y="-677" width="120" height="60" as="geometry" />
        </mxCell>
        <mxCell id="G_jc5sRVIORRS5Z0nNji-59" style="edgeStyle=orthogonalEdgeStyle;rounded=0;orthogonalLoop=1;jettySize=auto;html=1;fontSize=11;fontColor=#FF0000;endArrow=classic;endFill=1;strokeColor=default;" edge="1" parent="1" source="MMz0G5BZzKkC_veyKBzm-18" target="G_jc5sRVIORRS5Z0nNji-22">
          <mxGeometry relative="1" as="geometry" />
        </mxCell>
        <mxCell id="MMz0G5BZzKkC_veyKBzm-18" value="flask 傳值 show" style="rounded=0;whiteSpace=wrap;html=1;fontSize=16;strokeColor=#b85450;strokeWidth=1;fillColor=#f8cecc;" vertex="1" parent="1">
          <mxGeometry x="1094" y="-350" width="120" height="60" as="geometry" />
        </mxCell>
        <mxCell id="G_jc5sRVIORRS5Z0nNji-60" style="edgeStyle=orthogonalEdgeStyle;rounded=0;orthogonalLoop=1;jettySize=auto;html=1;fontSize=11;fontColor=#FF0000;endArrow=classic;endFill=1;strokeColor=default;" edge="1" parent="1" source="MMz0G5BZzKkC_veyKBzm-20" target="G_jc5sRVIORRS5Z0nNji-24">
          <mxGeometry relative="1" as="geometry" />
        </mxCell>
        <mxCell id="MMz0G5BZzKkC_veyKBzm-20" value="flask 傳值 show" style="rounded=0;whiteSpace=wrap;html=1;fontSize=16;strokeColor=#b85450;strokeWidth=1;fillColor=#f8cecc;" vertex="1" parent="1">
          <mxGeometry x="1094" y="-174" width="120" height="60" as="geometry" />
        </mxCell>
        <mxCell id="G_jc5sRVIORRS5Z0nNji-61" style="edgeStyle=orthogonalEdgeStyle;rounded=0;orthogonalLoop=1;jettySize=auto;html=1;entryX=0;entryY=0.5;entryDx=0;entryDy=0;fontSize=11;fontColor=#FF0000;endArrow=classic;endFill=1;strokeColor=default;" edge="1" parent="1" source="MMz0G5BZzKkC_veyKBzm-22" target="G_jc5sRVIORRS5Z0nNji-27">
          <mxGeometry relative="1" as="geometry" />
        </mxCell>
        <mxCell id="MMz0G5BZzKkC_veyKBzm-22" value="flask 傳值 show" style="rounded=0;whiteSpace=wrap;html=1;fontSize=16;strokeColor=#b85450;strokeWidth=1;fillColor=#f8cecc;" vertex="1" parent="1">
          <mxGeometry x="1094" y="-60" width="120" height="60" as="geometry" />
        </mxCell>
        <mxCell id="G_jc5sRVIORRS5Z0nNji-62" style="edgeStyle=orthogonalEdgeStyle;rounded=0;orthogonalLoop=1;jettySize=auto;html=1;entryX=0;entryY=0.5;entryDx=0;entryDy=0;fontSize=11;fontColor=#FF0000;endArrow=classic;endFill=1;strokeColor=default;" edge="1" parent="1" source="MMz0G5BZzKkC_veyKBzm-24" target="G_jc5sRVIORRS5Z0nNji-29">
          <mxGeometry relative="1" as="geometry" />
        </mxCell>
        <mxCell id="MMz0G5BZzKkC_veyKBzm-24" value="flask 傳值 show" style="rounded=0;whiteSpace=wrap;html=1;fontSize=16;strokeColor=#b85450;strokeWidth=1;fillColor=#f8cecc;" vertex="1" parent="1">
          <mxGeometry x="1094" y="54" width="120" height="60" as="geometry" />
        </mxCell>
        <mxCell id="MMz0G5BZzKkC_veyKBzm-26" value="內嵌??" style="rounded=0;whiteSpace=wrap;html=1;fontSize=16;strokeColor=#b85450;strokeWidth=1;fillColor=#f8cecc;" vertex="1" parent="1">
          <mxGeometry x="1094" y="-765" width="120" height="60" as="geometry" />
        </mxCell>
        <mxCell id="MMz0G5BZzKkC_veyKBzm-28" value="內嵌??" style="rounded=0;whiteSpace=wrap;html=1;fontSize=16;strokeColor=#b85450;strokeWidth=1;fillColor=#f8cecc;" vertex="1" parent="1">
          <mxGeometry x="1094" y="-549" width="120" height="60" as="geometry" />
        </mxCell>
        <mxCell id="MMz0G5BZzKkC_veyKBzm-29" value="文章 放連結" style="rounded=0;whiteSpace=wrap;html=1;fontSize=16;strokeColor=#b85450;strokeWidth=1;fillColor=#f8cecc;" vertex="1" parent="1">
          <mxGeometry x="1094" y="-461" width="120" height="60" as="geometry" />
        </mxCell>
        <mxCell id="MMz0G5BZzKkC_veyKBzm-32" value="內嵌+ 放連結" style="rounded=0;whiteSpace=wrap;html=1;fontSize=16;strokeColor=#b85450;strokeWidth=1;fillColor=#f8cecc;" vertex="1" parent="1">
          <mxGeometry x="1094" y="169" width="120" height="60" as="geometry" />
        </mxCell>
        <mxCell id="G_jc5sRVIORRS5Z0nNji-63" style="edgeStyle=orthogonalEdgeStyle;rounded=0;orthogonalLoop=1;jettySize=auto;html=1;fontSize=11;fontColor=#FF0000;endArrow=classic;endFill=1;strokeColor=default;" edge="1" parent="1" source="MMz0G5BZzKkC_veyKBzm-35" target="G_jc5sRVIORRS5Z0nNji-38">
          <mxGeometry relative="1" as="geometry" />
        </mxCell>
        <mxCell id="MMz0G5BZzKkC_veyKBzm-35" value="flask 傳值 show" style="rounded=0;whiteSpace=wrap;html=1;fontSize=16;strokeColor=#b85450;strokeWidth=1;fillColor=#f8cecc;" vertex="1" parent="1">
          <mxGeometry x="1094" y="401" width="120" height="60" as="geometry" />
        </mxCell>
        <mxCell id="MMz0G5BZzKkC_veyKBzm-40" value="是" style="edgeStyle=orthogonalEdgeStyle;rounded=0;orthogonalLoop=1;jettySize=auto;html=1;entryX=0;entryY=0.5;entryDx=0;entryDy=0;fontSize=16;fontColor=#000000;endArrow=classic;endFill=1;strokeColor=default;" edge="1" parent="1" source="MMz0G5BZzKkC_veyKBzm-37" target="FRc3w70s1SiC9rnRwSGg-102">
          <mxGeometry relative="1" as="geometry" />
        </mxCell>
        <mxCell id="G_jc5sRVIORRS5Z0nNji-70" value="&lt;font color=&quot;#000000&quot;&gt;否&lt;/font&gt;" style="edgeStyle=orthogonalEdgeStyle;rounded=0;orthogonalLoop=1;jettySize=auto;html=1;entryX=0.5;entryY=0;entryDx=0;entryDy=0;fontSize=11;fontColor=#FF0000;endArrow=classic;endFill=1;strokeColor=default;" edge="1" parent="1" source="MMz0G5BZzKkC_veyKBzm-37" target="G_jc5sRVIORRS5Z0nNji-69">
          <mxGeometry relative="1" as="geometry" />
        </mxCell>
        <mxCell id="MMz0G5BZzKkC_veyKBzm-37" value="認證登入 使用權" style="rhombus;whiteSpace=wrap;html=1;fontSize=16;fontColor=#000000;strokeColor=#000000;strokeWidth=1;gradientColor=#ffffff;" vertex="1" parent="1">
          <mxGeometry x="412" y="622" width="174" height="80" as="geometry" />
        </mxCell>
        <mxCell id="G_jc5sRVIORRS5Z0nNji-65" style="edgeStyle=orthogonalEdgeStyle;rounded=0;orthogonalLoop=1;jettySize=auto;html=1;fontSize=11;fontColor=#FF0000;endArrow=classic;endFill=1;strokeColor=default;" edge="1" parent="1" source="G_jc5sRVIORRS5Z0nNji-2" target="G_jc5sRVIORRS5Z0nNji-44">
          <mxGeometry relative="1" as="geometry" />
        </mxCell>
        <mxCell id="G_jc5sRVIORRS5Z0nNji-2" value="&lt;span style=&quot;font-size: 16px;&quot;&gt;flask 傳值 show&lt;/span&gt;" style="rounded=0;whiteSpace=wrap;html=1;fontSize=11;strokeColor=#b85450;strokeWidth=1;fillColor=#f8cecc;" vertex="1" parent="1">
          <mxGeometry x="1094" y="864" width="120" height="60" as="geometry" />
        </mxCell>
        <mxCell id="G_jc5sRVIORRS5Z0nNji-66" style="edgeStyle=orthogonalEdgeStyle;rounded=0;orthogonalLoop=1;jettySize=auto;html=1;fontSize=11;fontColor=#FF0000;endArrow=classic;endFill=1;strokeColor=default;" edge="1" parent="1" source="G_jc5sRVIORRS5Z0nNji-5" target="G_jc5sRVIORRS5Z0nNji-47">
          <mxGeometry relative="1" as="geometry" />
        </mxCell>
        <mxCell id="G_jc5sRVIORRS5Z0nNji-5" value="&lt;span style=&quot;font-size: 16px;&quot;&gt;flask 傳值 show&lt;/span&gt;" style="rounded=0;whiteSpace=wrap;html=1;fontSize=11;strokeColor=#b85450;strokeWidth=1;fillColor=#f8cecc;" vertex="1" parent="1">
          <mxGeometry x="1094" y="1072" width="120" height="60" as="geometry" />
        </mxCell>
        <mxCell id="G_jc5sRVIORRS5Z0nNji-9" value="點連結~&amp;nbsp;&lt;br&gt;for more info" style="rounded=0;whiteSpace=wrap;html=1;fontSize=11;strokeColor=#666666;strokeWidth=1;fillColor=#f5f5f5;fontColor=#333333;dashed=1;" vertex="1" parent="1">
          <mxGeometry x="693" y="553" width="120" height="60" as="geometry" />
        </mxCell>
        <mxCell id="G_jc5sRVIORRS5Z0nNji-12" value="文章:&lt;br&gt;上方:上方切換圖片屬性&lt;br&gt;中間:首頁屬性&lt;br&gt;下方:links json&amp;nbsp;" style="shape=parallelogram;perimeter=parallelogramPerimeter;whiteSpace=wrap;html=1;fixedSize=1;fontSize=11;strokeColor=#9673a6;strokeWidth=1;fillColor=#e1d5e7;" vertex="1" parent="1">
          <mxGeometry x="1351" y="-993.5" width="164" height="111" as="geometry" />
        </mxCell>
        <mxCell id="G_jc5sRVIORRS5Z0nNji-14" value="&lt;font style=&quot;font-size: 30px;&quot; color=&quot;#ffffff&quot;&gt;&lt;b&gt;&lt;i&gt;篩選判斷&lt;/i&gt;&lt;/b&gt;&lt;/font&gt;" style="text;html=1;align=center;verticalAlign=middle;resizable=0;points=[];autosize=1;strokeColor=none;fillColor=none;fontSize=11;fontColor=#000000;" vertex="1" parent="1">
          <mxGeometry x="1364" y="-1053" width="138" height="48" as="geometry" />
        </mxCell>
        <mxCell id="G_jc5sRVIORRS5Z0nNji-53" style="edgeStyle=orthogonalEdgeStyle;rounded=0;orthogonalLoop=1;jettySize=auto;html=1;dashed=1;fontSize=11;fontColor=#FF0000;endArrow=none;endFill=0;strokeColor=default;" edge="1" parent="1" source="G_jc5sRVIORRS5Z0nNji-15" target="G_jc5sRVIORRS5Z0nNji-52">
          <mxGeometry relative="1" as="geometry" />
        </mxCell>
        <mxCell id="G_jc5sRVIORRS5Z0nNji-15" value="&lt;font style=&quot;font-size: 16px;&quot;&gt;r&lt;font style=&quot;font-size: 16px;&quot; color=&quot;#000000&quot;&gt;編輯首頁links&lt;/font&gt;&lt;/font&gt;" style="rounded=0;whiteSpace=wrap;html=1;fontSize=9;fontColor=#FFFFFF;strokeColor=#000000;strokeWidth=1;gradientColor=#ffffff;" vertex="1" parent="1">
          <mxGeometry x="693" y="1278.5" width="120" height="60" as="geometry" />
        </mxCell>
        <mxCell id="G_jc5sRVIORRS5Z0nNji-20" value="文章:&lt;br&gt;有屬性: 公告&amp;nbsp;&lt;br&gt;以&quot;時間&quot;排序" style="shape=parallelogram;perimeter=parallelogramPerimeter;whiteSpace=wrap;html=1;fixedSize=1;fontSize=11;strokeColor=#9673a6;strokeWidth=1;fillColor=#e1d5e7;" vertex="1" parent="1">
          <mxGeometry x="1351" y="-702.5" width="164" height="111" as="geometry" />
        </mxCell>
        <mxCell id="G_jc5sRVIORRS5Z0nNji-22" value="文章:&lt;br&gt;有屬性: 資源&amp;nbsp;&lt;br&gt;以&quot;時間&quot;排序" style="shape=parallelogram;perimeter=parallelogramPerimeter;whiteSpace=wrap;html=1;fixedSize=1;fontSize=11;strokeColor=#9673a6;strokeWidth=1;fillColor=#e1d5e7;" vertex="1" parent="1">
          <mxGeometry x="1351" y="-375.5" width="164" height="111" as="geometry" />
        </mxCell>
        <mxCell id="G_jc5sRVIORRS5Z0nNji-24" value="文章:&lt;br&gt;有屬性: 班級幹部&amp;nbsp;&lt;br&gt;以&lt;font color=&quot;#ff0000&quot;&gt;自訂順序排序&lt;/font&gt;" style="shape=parallelogram;perimeter=parallelogramPerimeter;whiteSpace=wrap;html=1;fixedSize=1;fontSize=11;strokeColor=#9673a6;strokeWidth=1;fillColor=#e1d5e7;" vertex="1" parent="1">
          <mxGeometry x="1369" y="-182.88" width="128" height="77.75" as="geometry" />
        </mxCell>
        <mxCell id="G_jc5sRVIORRS5Z0nNji-27" value="文章:&lt;br&gt;屬性:班級財務&lt;br&gt;排序:新到舊&lt;br&gt;第一: 試算表網址" style="shape=parallelogram;perimeter=parallelogramPerimeter;whiteSpace=wrap;html=1;fixedSize=1;fontSize=11;strokeColor=#9673a6;strokeWidth=1;fillColor=#e1d5e7;" vertex="1" parent="1">
          <mxGeometry x="1367" y="-71.5" width="132" height="83" as="geometry" />
        </mxCell>
        <mxCell id="G_jc5sRVIORRS5Z0nNji-29" value="文章:&lt;br&gt;屬性:班級照片&lt;br&gt;排序:新到舊&lt;br&gt;第一: 試算表網址" style="shape=parallelogram;perimeter=parallelogramPerimeter;whiteSpace=wrap;html=1;fixedSize=1;fontSize=11;strokeColor=#9673a6;strokeWidth=1;fillColor=#e1d5e7;" vertex="1" parent="1">
          <mxGeometry x="1367" y="42.5" width="132" height="83" as="geometry" />
        </mxCell>
        <mxCell id="G_jc5sRVIORRS5Z0nNji-31" value="管理(班級幹部可寫文章" style="rounded=0;whiteSpace=wrap;html=1;fontSize=16;fontColor=#FF0000;strokeColor=#000000;strokeWidth=1;gradientColor=#ffffff;dashed=1;" vertex="1" parent="1">
          <mxGeometry x="908" y="-120" width="91" height="60" as="geometry" />
        </mxCell>
        <mxCell id="G_jc5sRVIORRS5Z0nNji-38" value="文章:&lt;br&gt;屬性:作品&lt;br&gt;排序:新到舊" style="shape=parallelogram;perimeter=parallelogramPerimeter;whiteSpace=wrap;html=1;fixedSize=1;fontSize=11;strokeColor=#9673a6;strokeWidth=1;fillColor=#e1d5e7;" vertex="1" parent="1">
          <mxGeometry x="1367" y="389.5" width="132" height="83" as="geometry" />
        </mxCell>
        <mxCell id="G_jc5sRVIORRS5Z0nNji-64" style="edgeStyle=orthogonalEdgeStyle;rounded=0;orthogonalLoop=1;jettySize=auto;html=1;fontSize=11;fontColor=#FF0000;endArrow=classic;endFill=1;strokeColor=default;" edge="1" parent="1" source="G_jc5sRVIORRS5Z0nNji-40" target="G_jc5sRVIORRS5Z0nNji-42">
          <mxGeometry relative="1" as="geometry" />
        </mxCell>
        <mxCell id="G_jc5sRVIORRS5Z0nNji-40" value="flask 傳值 show" style="rounded=0;whiteSpace=wrap;html=1;fontSize=16;strokeColor=#b85450;strokeWidth=1;fillColor=#f8cecc;" vertex="1" parent="1">
          <mxGeometry x="1094" y="632" width="120" height="60" as="geometry" />
        </mxCell>
        <mxCell id="G_jc5sRVIORRS5Z0nNji-42" value="文章:&lt;br&gt;擁有者權限&lt;br&gt;&lt;font color=&quot;#ff0000&quot;&gt;編輯權限&lt;/font&gt;" style="shape=parallelogram;perimeter=parallelogramPerimeter;whiteSpace=wrap;html=1;fixedSize=1;fontSize=11;strokeColor=#9673a6;strokeWidth=1;fillColor=#e1d5e7;" vertex="1" parent="1">
          <mxGeometry x="1367" y="622" width="132" height="83" as="geometry" />
        </mxCell>
        <mxCell id="G_jc5sRVIORRS5Z0nNji-44" value="文章:&lt;br&gt;&lt;font color=&quot;#ff0000&quot;&gt;編輯權限&lt;/font&gt;&lt;br&gt;排序:新到舊&lt;br&gt;人、文章類別去req" style="shape=parallelogram;perimeter=parallelogramPerimeter;whiteSpace=wrap;html=1;fixedSize=1;fontSize=11;strokeColor=#9673a6;strokeWidth=1;fillColor=#e1d5e7;" vertex="1" parent="1">
          <mxGeometry x="1362" y="852.5" width="142" height="83" as="geometry" />
        </mxCell>
        <mxCell id="G_jc5sRVIORRS5Z0nNji-46" value="&lt;font style=&quot;font-size: 11px;&quot; color=&quot;#000000&quot;&gt;管理擁有所有文章&lt;/font&gt;&lt;font style=&quot;font-size: 11px;&quot;&gt;管理權限&lt;/font&gt;" style="text;html=1;align=center;verticalAlign=middle;resizable=0;points=[];autosize=1;strokeColor=none;fillColor=none;fontSize=16;fontColor=#FF0000;" vertex="1" parent="1">
          <mxGeometry x="668" y="930" width="162" height="31" as="geometry" />
        </mxCell>
        <mxCell id="G_jc5sRVIORRS5Z0nNji-51" style="edgeStyle=orthogonalEdgeStyle;rounded=0;orthogonalLoop=1;jettySize=auto;html=1;dashed=1;fontSize=11;fontColor=#FF0000;endArrow=none;endFill=0;strokeColor=default;" edge="1" parent="1" source="G_jc5sRVIORRS5Z0nNji-47" target="G_jc5sRVIORRS5Z0nNji-49">
          <mxGeometry relative="1" as="geometry" />
        </mxCell>
        <mxCell id="G_jc5sRVIORRS5Z0nNji-47" value="帳號:&lt;br&gt;類別:(認證,未認證,訪客=&amp;gt;分類&lt;br&gt;預設:未認證 類別&lt;br&gt;認證,未認證,訪客 req" style="shape=parallelogram;perimeter=parallelogramPerimeter;whiteSpace=wrap;html=1;fixedSize=1;fontSize=11;strokeColor=#9673a6;strokeWidth=1;fillColor=#e1d5e7;" vertex="1" parent="1">
          <mxGeometry x="1322" y="1060.5" width="222" height="83" as="geometry" />
        </mxCell>
        <mxCell id="G_jc5sRVIORRS5Z0nNji-49" value="認證: 班級成員、寫文章將預設&lt;span style=&quot;color: rgb(255, 0, 0);&quot;&gt;已&lt;/span&gt;&lt;font color=&quot;#ff0000&quot;&gt;審核&lt;/font&gt;&lt;br&gt;未認證: 班級成員 寫文章須&lt;font color=&quot;#ff0000&quot;&gt;審核&lt;/font&gt;&lt;br&gt;訪客:不適班級成員" style="rounded=0;whiteSpace=wrap;html=1;dashed=1;fontSize=11;fontColor=#000000;strokeColor=#000000;strokeWidth=1;gradientColor=#ffffff;" vertex="1" parent="1">
          <mxGeometry x="1266.25" y="1156" width="333.5" height="86" as="geometry" />
        </mxCell>
        <mxCell id="G_jc5sRVIORRS5Z0nNji-67" style="edgeStyle=orthogonalEdgeStyle;rounded=0;orthogonalLoop=1;jettySize=auto;html=1;fontSize=11;fontColor=#FF0000;endArrow=classic;endFill=1;strokeColor=default;" edge="1" parent="1" source="G_jc5sRVIORRS5Z0nNji-52" target="G_jc5sRVIORRS5Z0nNji-54">
          <mxGeometry relative="1" as="geometry" />
        </mxCell>
        <mxCell id="G_jc5sRVIORRS5Z0nNji-52" value="&lt;span style=&quot;font-size: 16px;&quot;&gt;flask 傳值 show&lt;/span&gt;" style="rounded=0;whiteSpace=wrap;html=1;fontSize=11;strokeColor=#b85450;strokeWidth=1;fillColor=#f8cecc;" vertex="1" parent="1">
          <mxGeometry x="1094" y="1277" width="120" height="60" as="geometry" />
        </mxCell>
        <mxCell id="G_jc5sRVIORRS5Z0nNji-54" value="連結:&lt;br&gt;當前連結 show&amp;nbsp;&lt;br&gt;edit ??" style="shape=parallelogram;perimeter=parallelogramPerimeter;whiteSpace=wrap;html=1;fixedSize=1;fontSize=11;strokeColor=#9673a6;strokeWidth=1;fillColor=#e1d5e7;" vertex="1" parent="1">
          <mxGeometry x="1322" y="1265.5" width="222" height="83" as="geometry" />
        </mxCell>
        <mxCell id="G_jc5sRVIORRS5Z0nNji-69" value="&lt;font color=&quot;#000000&quot;&gt;導頁到首頁&lt;/font&gt;" style="rounded=0;whiteSpace=wrap;html=1;fontSize=11;fontColor=#FF0000;strokeColor=none;strokeWidth=1;gradientColor=#ffffff;" vertex="1" parent="1">
          <mxGeometry x="439" y="758" width="120" height="60" as="geometry" />
        </mxCell>
      </root>
    </mxGraphModel>
  </diagram>
  <diagram id="4rdW10R4nMfylIW8_K46" name="文件物件-後端">
    <mxGraphModel dx="1038" dy="539" grid="0" gridSize="10" guides="1" tooltips="1" connect="1" arrows="1" fold="1" page="1" pageScale="1" pageWidth="827" pageHeight="1169" math="0" shadow="0">
      <root>
        <mxCell id="0" />
        <mxCell id="1" parent="0" />
      </root>
    </mxGraphModel>
  </diagram>
  <diagram id="zZE-y9bboT51KGp_EKce" name="人物件-後端">
    <mxGraphModel dx="1038" dy="539" grid="0" gridSize="10" guides="1" tooltips="1" connect="1" arrows="1" fold="1" page="1" pageScale="1" pageWidth="827" pageHeight="1169" math="0" shadow="0">
      <root>
        <mxCell id="0" />
        <mxCell id="1" parent="0" />
      </root>
    </mxGraphModel>
  </diagram>
</mxfile>
